<svg width="528" height="144" viewBox="0 0 528 144" fill="none" xmlns="http://www.w3.org/2000/svg">
<path d="M35.9593 21.5715L44.8586 15.2647L95.4653 24.5337L97.0194 36.4209L141.789 26.4416L144 29.9136V144H123.297L133.886 81.2291L125.061 67.3709L113.069 70.044L99.5807 82.602L93.437 143.104L93.265 144H56.5963L57.7882 137.788L64.4751 71.937L64.886 68.3795L63.2079 55.544L53.2349 53.7173L33.8247 67.4729L21.0435 144H0V52.0073L3.92227 39.64L2.84443 38.3632L0 38.7036V2.12398L17.7475 0L35.9593 21.5715Z" fill="black"/>
<path d="M262.897 85.7946L287.216 88.4469C283.38 100.978 276.276 110.703 265.904 117.622C255.532 124.541 242.283 128 226.157 128C205.848 128 189.723 122.503 177.781 111.51C165.927 100.44 160 84.949 160 65.0378C160 44.4348 166.014 28.4444 178.043 17.0667C190.072 5.68889 205.674 0 224.85 0C243.416 0 258.582 5.57357 270.349 16.7207C282.116 27.8679 288 43.5508 288 63.7694C288 64.9994 287.956 66.8444 287.869 69.3045H184.319C185.19 82.758 189.505 93.0595 197.263 100.209C205.02 107.359 214.695 110.933 226.288 110.933C234.917 110.933 242.283 108.935 248.384 104.937C254.486 100.939 259.323 94.5586 262.897 85.7946ZM185.626 52.2378H263.158C262.112 41.9363 259.149 34.2102 254.268 29.0595C246.772 21.0643 237.053 17.0667 225.111 17.0667C214.303 17.0667 205.194 20.2571 197.785 26.6378C190.464 33.0186 186.411 41.552 185.626 52.2378Z" fill="black"/>
<path d="M342.543 19.1592L357.543 9.80889L400.865 10.2742L416 45.4305V70.8466L408.238 104.959L416 103.559V112H377.92L390.456 56.907L382.35 38.0769L365.417 37.8951L340.789 53.2476L340.364 56.0206L323.136 112H304V78.986L312.998 49.7498L316.135 29.257L316.069 29.1357L304 30.239V2.12222L327.216 0H331.974L342.543 19.1592Z" fill="black"/>
<path d="M510.049 95.9006V82.2541C500.832 92.7514 488.307 98 472.474 98C465.487 98 458.945 96.9503 452.85 94.8508C446.829 92.7514 442.332 90.1271 439.359 86.9779C436.46 83.7704 434.416 79.8631 433.226 75.256C432.409 72.1651 432 67.2664 432 60.5599V3H452.07V54.5239C452.07 62.7468 452.479 68.287 453.296 71.1446C454.56 75.2851 457.236 78.5509 461.324 80.942C465.412 83.2747 470.467 84.4411 476.488 84.4411C482.509 84.4411 488.158 83.2455 493.436 80.8545C498.713 78.4052 502.43 75.1102 504.585 70.9696C506.815 66.7707 507.93 60.7056 507.93 52.7744V3H528V95.9006H510.049Z" fill="black"/>
</svg>
