<svg width="528" height="147" viewBox="0 0 528 147" fill="none" xmlns="http://www.w3.org/2000/svg">
<path d="M23.9729 14.381L29.9058 10.1765L63.6436 16.3558L64.6796 24.2806L94.5261 17.6277L96 19.9424V96H82.1978L89.257 54.1528L83.374 44.9139L75.3791 46.696L66.3871 55.068L62.2913 95.4024L62.1767 96H37.7309L38.5255 91.8588L42.9834 47.958L43.2573 45.5864L42.1386 37.0293L35.4899 35.8115L22.5498 44.9819L14.029 96H0V34.6715L2.61484 26.4267L1.89629 25.5755L0 25.8024V1.41599L11.8316 0L23.9729 14.381Z" fill="black"/>
<path d="M202.035 75.0703L223.314 77.391C219.958 88.3556 213.742 96.8649 204.666 102.919C195.59 108.973 183.997 112 169.888 112C152.117 112 138.007 107.19 127.559 97.5712C117.186 87.8847 112 74.3303 112 56.9081C112 38.8805 117.263 24.8889 127.788 14.9333C138.313 4.97778 151.965 0 168.744 0C184.989 0 198.259 4.87688 208.556 14.6306C218.852 24.3844 224 38.1069 224 55.7982C224 56.8745 223.962 58.4889 223.886 60.6414H133.279C134.042 72.4132 137.817 81.427 144.605 87.6829C151.393 93.9388 159.858 97.0667 170.002 97.0667C177.553 97.0667 183.997 95.3177 189.336 91.8198C194.675 88.3219 198.908 82.7387 202.035 75.0703ZM134.423 45.7081H202.264C201.348 36.6943 198.755 29.9339 194.484 25.427C187.925 18.4312 179.421 14.9333 168.972 14.9333C159.515 14.9333 151.545 17.7249 145.062 23.3081C138.656 28.8913 135.109 36.358 134.423 45.7081Z" fill="black"/>
<path d="M284.049 21.8962L301.192 6.40143L350.703 6.9332L368 51.9206V80.9676L359.129 119.953L368 118.353V128H324.48L338.807 65.0366L329.542 38.7077L310.191 38.5L282.044 60.8544L281.559 64.0236L261.869 128H240V90.2697L250.283 56.8569L253.869 33.4366L253.793 33.2979L240 34.5589V2.42539L266.533 0H271.97L284.049 21.8962Z" fill="black"/>
<path d="M501.073 143.751V122.635C487.247 138.878 468.46 147 444.711 147C434.23 147 424.418 145.376 415.275 142.127C406.244 138.878 399.498 134.818 395.038 129.945C390.69 124.982 387.624 118.936 385.84 111.807C384.613 107.024 384 99.4438 384 89.0663V0H414.105V79.7265C414.105 92.4503 414.718 101.023 415.944 105.445C417.84 111.852 421.854 116.905 427.986 120.605C434.118 124.215 441.7 126.019 450.732 126.019C459.763 126.019 468.237 124.169 476.153 120.47C484.07 116.68 489.645 111.581 492.878 105.174C496.223 98.6768 497.895 89.2919 497.895 77.0193V0H528V143.751H501.073Z" fill="black"/>
</svg>
