<svg width="360" height="240" viewBox="0 0 360 240" fill="none" xmlns="http://www.w3.org/2000/svg">
<path d="M258.098 125.671L265.953 120.705L307.954 130.916L309.437 141.588L356.995 135.579L360 144.319V239H328.541L341.125 184.366L335.963 169.351L321.83 171.137L311.199 181.803L301.897 237.703L301.57 239H269.732L271.656 231.38L281.576 171.771L282.079 168.967L280.269 155.954L271.383 153.793L257.819 162.369L240 229.148V119H253.448L258.098 125.671Z" fill="white"/>
<path d="M29.9658 18.9404L37.3818 13.7314L79.5547 21.3867L80.8496 31.2041L118.157 22.9629L120 25.8301V120.051H102.747L111.571 68.21L104.218 56.7646L94.2236 58.9727L82.9844 69.3438L77.8643 119.311L77.7207 120.051H47.1641L48.1572 114.921L53.7295 60.5361L54.0713 57.5977L52.6729 46.9971L44.3623 45.4893L28.1875 56.8496L17.5361 120.051H0V44.0762L3.26855 33.8623L2.37012 32.8086L0 33.0889V2.87891L14.79 1.125L29.9658 18.9404Z" fill="white"/>
<path d="M240 18.3643V112.708L239.164 114.847L229.964 120H120V43.9316L134.685 10.832L181.145 0H201.089L240 18.3643ZM156.048 36.6562L135.452 83.0811L145.931 105.825L177.599 114.946L215.135 93.9209L223.121 73.498L223.606 43.8008L191.135 28.4756L156.048 36.6562Z" fill="white"/>
<path d="M353.417 32.7559L360 78.5127V120H352.085L333.936 108.018L325.115 46.709L309.774 30.9883L292.768 37.3096L274.031 62.125L274.672 65.0615L278.418 120H248.347L244.89 69.3008L240.158 47.5986L240.045 47.5029L240 47.5244V14.0811L244.375 11.9258L262.693 27.3555L274.104 12.2422L307.036 0H321.453L353.417 32.7559Z" fill="white"/>
<path d="M41.2959 140.527L57.3672 130.51L103.784 131.008L120 168.675V195.906L111.684 232.456L120 230.955V239H79.4277L92.6318 180.972L83.9463 160.797L65.8037 160.602L39.416 177.051L38.9609 180.021L20.8105 239H0V204.628L9.64062 173.303L13.002 151.347L12.9307 151.217L0 152.398V122.273L29.7266 119.557L41.2959 140.527Z" fill="white"/>
<path d="M231.829 136.702L240 156.388V239.375H132.372L120 223.916V140.627L151.323 119.375H164.863L231.829 136.702ZM139.957 163.341L136.141 196.073L163.025 229.663L184.479 234.2L213.855 229.819L223.66 195.277L209.85 162.003L160.68 149.28L139.957 163.341Z" fill="white"/>
</svg>
