<svg width="361" height="61" viewBox="0 0 361 61" fill="none" xmlns="http://www.w3.org/2000/svg">
<path fill-rule="evenodd" clip-rule="evenodd" d="M294.401 9.5592L298.369 19.1864V6.8097L304.965 11.6088L307.691 8.14863L327.995 6.14167L330.318 10.6968L348.509 1.57505H351.379L360.298 23.2198V60.2609L356.647 60.2612H354.974L351.099 24.9193L346.46 18.9922L340.442 22.01L337.367 28.4633L341.93 55.0026L342.396 60.2612H327.769L327.472 56.9093L322.606 28.609L322.394 27.2723L319.56 21.7174L315.264 22.1422L310.557 28.1176L312.974 60.2612L246.489 60.2609L240.092 52.2119V11.4791L254.589 1.57469L263.757 1.57469L294.401 9.5592ZM249.784 22.5871L247.931 38.5951L260.987 55.0226L271.406 57.2413L285.673 55.0989L290.434 38.2061L283.727 21.9327L259.848 15.7112L249.784 22.5871Z" stroke="black" stroke-width="0.45" stroke-linecap="square" stroke-dasharray="6 6"/>
<path fill-rule="evenodd" clip-rule="evenodd" d="M123.537 10.5557V8.46098L125.662 7.40681L134.558 14.9529L140.1 7.56155L156.094 1.57469L163.094 1.57469L178.618 17.5939L181.814 39.9688V42.9622L186.496 27.643L188.129 16.9051L188.094 16.8413L181.814 17.4194V2.68653L193.895 1.57469L196.37 1.57469L201.87 11.6138L209.675 6.71442L232.217 6.95835L240.092 25.3796V38.6972L236.053 56.5715L240.092 55.8379V60.2609H220.278L226.8 31.3933L222.583 21.5265L213.772 21.4312L200.957 29.4755L200.736 30.9287L191.771 60.2609H177.971L169.157 54.4008L164.873 24.4178L157.423 16.7295L149.164 19.8211L140.065 31.9571L140.376 33.3934L142.195 60.2609L127.592 60.2609L125.913 35.4663L123.614 24.8527L123.559 24.8061L123.537 24.8168V56.6954L123.131 57.741L118.663 60.2609H65.2598V60.0417H56.881L61.1665 34.6887L57.5953 29.0912L52.7418 30.1708L47.2833 35.2432L44.7969 59.6795L44.7272 60.0417H29.8872L30.3695 57.5329L33.0757 30.9355L33.2421 29.4988L32.5631 24.3143L28.527 23.5768L20.6715 29.1324L15.4989 60.0417L0.297852 60.1319L5.68676 22.976L8.56997 17.8908L8.13353 17.375L4.68103 17.6731L0.297852 0.26123L14.1651 1.88023L21.5355 10.5929L25.1369 8.04583L45.6175 11.7893L46.2468 16.5906L64.3652 12.5602L65.2598 13.9625V23.0599L72.3915 6.87239L94.9555 1.57469L104.64 1.57469L123.537 10.5557ZM82.7665 19.5016L72.7639 42.2057L77.8532 53.3291L93.2325 57.7897L111.462 47.507L115.34 37.5195L115.576 22.9958L99.8061 15.5009L82.7665 19.5016Z" stroke="black" stroke-width="0.45" stroke-linecap="square" stroke-dasharray="6 6"/>
</svg>
